<svg xmlns="http://www.w3.org/2000/svg" xmlns:xlink="http://www.w3.org/1999/xlink" viewBox="10 10 50 50" version="1.1" x="0px" y="0px"><title>heat, air, flow, temperature, hot</title><desc>Created with Sketch.</desc><g stroke="none" stroke-width="1" fill="none" fill-rule="evenodd"><g transform="translate(-416.000000, -896.000000)" fill="#000000" fill-rule="nonzero"><path d="M422,896 L478,896 C481.313708,896 484,898.686292 484,902 L484,958 C484,961.313708 481.313708,964 478,964 L422,964 C418.686292,964 416,961.313708 416,958 L416,902 C416,898.686292 418.686292,896 422,896 Z M422,900 C420.895431,900 420,900.895431 420,902 L420,958 C420,959.104569 420.895431,960 422,960 L478,960 C479.104569,960 480,959.104569 480,958 L480,902 C480,900.895431 479.104569,900 478,900 L422,900 Z M451.627467,944.837524 C452.269485,945.736349 452.061302,946.985449 451.162476,947.627467 C450.263651,948.269485 449.014551,948.061302 448.372533,947.162476 C444.56263,941.828612 444.56263,935.669013 448.251685,929.028714 C451.229297,923.669013 451.229297,919.161946 448.372533,915.162476 C447.730515,914.263651 447.938698,913.014551 448.837524,912.372533 C449.736349,911.730515 450.985449,911.938698 451.627467,912.837524 C455.43737,918.171388 455.43737,924.330987 451.748315,930.971286 C448.770703,936.330987 448.770703,940.838054 451.627467,944.837524 Z M435.627467,944.837524 C436.269485,945.736349 436.061302,946.985449 435.162476,947.627467 C434.263651,948.269485 433.014551,948.061302 432.372533,947.162476 C428.56263,941.828612 428.56263,935.669013 432.251685,929.028714 C435.229297,923.669013 435.229297,919.161946 432.372533,915.162476 C431.730515,914.263651 431.938698,913.014551 432.837524,912.372533 C433.736349,911.730515 434.985449,911.938698 435.627467,912.837524 C439.43737,918.171388 439.43737,924.330987 435.748315,930.971286 C432.770703,936.330987 432.770703,940.838054 435.627467,944.837524 Z M467.627467,944.837524 C468.269485,945.736349 468.061302,946.985449 467.162476,947.627467 C466.263651,948.269485 465.014551,948.061302 464.372533,947.162476 C460.56263,941.828612 460.56263,935.669013 464.251685,929.028714 C467.229297,923.669013 467.229297,919.161946 464.372533,915.162476 C463.730515,914.263651 463.938698,913.014551 464.837524,912.372533 C465.736349,911.730515 466.985449,911.938698 467.627467,912.837524 C471.43737,918.171388 471.43737,924.330987 467.748315,930.971286 C464.770703,936.330987 464.770703,940.838054 467.627467,944.837524 Z"/></g></g><text x="0" y="83" fill="#000000" font-size="5px" font-weight="bold" font-family="'Helvetica Neue', Helvetica, Arial-Unicode, Arial, Sans-serif">Created by Andrejs Kirma</text><text x="0" y="88" fill="#000000" font-size="5px" font-weight="bold" font-family="'Helvetica Neue', Helvetica, Arial-Unicode, Arial, Sans-serif">from the Noun Project</text></svg>