<svg xmlns="http://www.w3.org/2000/svg" xmlns:xlink="http://www.w3.org/1999/xlink" width="600" zoomAndPan="magnify" viewBox="0 0 450 135.000003" height="180" preserveAspectRatio="xMidYMid meet" version="1.0"><defs><g/><clipPath id="c7fa83b220"><path d="M 4.632812 94 L 69 94 L 69 129 L 4.632812 129 Z M 4.632812 94 " clip-rule="nonzero"/></clipPath></defs><path fill="#000000" d="M 77.242188 8.039062 C 81.75 7.894531 86.074219 8.375 90.203125 10.019531 C 92.53125 10.949219 94.699219 12.15625 96.648438 13.789062 C 99.785156 16.414062 101.789062 19.726562 102.960938 23.578125 C 103.484375 25.308594 103.851562 27.085938 103.820312 28.90625 C 103.789062 30.746094 104.007812 32.59375 103.652344 34.429688 C 103.542969 34.976562 103.695312 35.304688 104.382812 35.429688 C 106.472656 35.816406 108.5 35.363281 110.539062 35.089844 C 112.304688 34.851562 113.957031 34.144531 115.683594 33.742188 C 115.808594 33.710938 115.929688 33.648438 116.058594 33.625 C 118.339844 33.25 119.246094 34.042969 119.296875 36.347656 C 119.367188 39.570312 118.15625 42.382812 116.570312 45.070312 C 113.773438 49.808594 109.847656 53.144531 104.40625 54.417969 C 102.597656 54.84375 100.746094 55.140625 98.847656 54.777344 C 97.210938 54.464844 96.730469 54.867188 95.902344 56.847656 C 95.492188 57.832031 95.285156 58.863281 95.179688 59.90625 C 95.046875 61.230469 95.023438 62.570312 94.953125 63.847656 C 95.25 64.023438 95.449219 63.949219 95.617188 63.859375 C 97.820312 62.722656 100.179688 62.433594 102.613281 62.527344 C 103.449219 62.5625 104.246094 62.761719 104.988281 63.121094 C 106.289062 63.75 106.832031 64.988281 106.515625 66.402344 C 105.898438 69.132812 104.28125 71.097656 101.914062 72.523438 C 98.898438 74.335938 95.902344 76.179688 92.898438 78.003906 C 91.378906 78.929688 89.773438 79.003906 88.164062 78.34375 C 86.421875 77.628906 85.890625 76.472656 86.476562 74.703125 C 86.761719 73.839844 86.679688 73.421875 85.667969 73.332031 C 82.949219 73.09375 80.390625 72.074219 77.714844 71.621094 C 77.21875 71.539062 76.746094 71.613281 76.261719 71.765625 C 72.015625 73.121094 67.648438 73.519531 63.21875 73.347656 C 62.175781 73.308594 61.140625 73.089844 60.097656 72.976562 C 57.796875 72.722656 55.820312 73.796875 53.761719 74.53125 C 53.515625 74.621094 53.277344 74.75 53.023438 74.792969 C 51.410156 75.070312 50.34375 76.113281 49.167969 77.164062 C 46.800781 79.28125 43.929688 80.546875 40.785156 81.078125 C 37.980469 81.550781 35.222656 81.289062 32.535156 80.328125 C 31.648438 80.011719 30.878906 79.527344 30.238281 78.839844 C 29.34375 77.886719 29.359375 77.085938 30.289062 76.183594 C 31.339844 75.164062 32.671875 74.542969 33.875 73.738281 C 36.609375 71.90625 39.375 70.113281 42.128906 68.304688 C 42.320312 68.179688 42.511719 68.050781 42.714844 67.941406 C 44.324219 67.0625 44.484375 66.574219 44.214844 64.730469 C 43.875 62.394531 43.09375 60.214844 42.15625 58.074219 C 41.664062 56.957031 41.335938 55.796875 41.171875 54.449219 C 39.039062 54.972656 36.910156 54.898438 34.785156 54.972656 C 31.296875 55.089844 28.28125 53.929688 25.5 51.9375 C 24.25 51.042969 23.234375 49.949219 22.390625 48.664062 C 21.628906 47.507812 21.589844 46.246094 21.699219 44.953125 C 21.738281 44.480469 22.078125 44.15625 22.472656 43.863281 C 24.140625 42.628906 26.09375 41.972656 27.964844 41.167969 C 33.570312 38.753906 39.0625 36.128906 44.238281 32.871094 C 44.765625 32.539062 45.117188 32.101562 45.371094 31.546875 C 46.957031 28.082031 48.964844 24.867188 51.371094 21.921875 C 56.546875 15.585938 62.839844 10.910156 70.921875 8.949219 C 72.96875 8.453125 75.050781 8.210938 77.242188 8.039062 M 101.121094 33.308594 C 101.246094 30.90625 101.410156 28.507812 100.933594 26.117188 C 100.738281 25.136719 100.421875 24.203125 99.878906 23.363281 C 98.773438 21.652344 96.75 21.339844 95.171875 22.625 C 94.601562 23.089844 94.160156 23.667969 93.832031 24.328125 C 92.71875 26.59375 92.75 29.097656 92.253906 31.511719 C 93.695312 32.0625 95.085938 32.511719 96.246094 33.425781 C 97.367188 34.3125 97.363281 35.34375 96.238281 36.199219 C 95.8125 36.519531 95.332031 36.734375 94.835938 36.917969 C 92.496094 37.785156 90.074219 37.953125 87.632812 37.644531 C 85.597656 37.390625 83.625 36.828125 81.835938 35.785156 C 81.1875 35.40625 80.503906 35 80.523438 34.078125 C 80.542969 33.105469 81.292969 32.746094 81.992188 32.386719 C 82.902344 31.917969 83.882812 31.617188 84.886719 31.410156 C 85.246094 31.335938 85.636719 31.242188 85.601562 30.75 C 85.480469 28.910156 85.5 27.042969 85.183594 25.238281 C 84.398438 20.792969 79.714844 17.796875 75.125 18.550781 C 71.453125 19.152344 68.46875 20.980469 65.824219 23.460938 C 61.65625 27.363281 58.730469 32.117188 56.476562 37.316406 C 54.125 42.730469 52.816406 48.339844 53.726562 54.265625 C 54.433594 58.835938 56.578125 62.613281 60.488281 65.21875 C 64.949219 68.183594 69.96875 68.757812 75.117188 68.183594 C 79.738281 67.667969 83.847656 65.703125 87.539062 62.894531 C 93.089844 58.675781 96.398438 52.949219 98.515625 46.441406 C 99.886719 42.230469 100.640625 37.886719 101.121094 33.308594 Z M 101.121094 33.308594 " fill-opacity="1" fill-rule="nonzero"/><g clip-path="url(#c7fa83b220)"><path fill="#000000" d="M 50.183594 95.175781 C 52.101562 94.976562 53.957031 94.941406 55.746094 94.582031 C 57.535156 94.226562 58.707031 95.351562 60.109375 95.957031 C 60.417969 96.089844 60.515625 96.378906 60.617188 96.65625 C 61 97.703125 61.375 98.757812 61.742188 99.8125 C 61.890625 100.234375 61.855469 100.648438 61.652344 101.058594 C 61.066406 102.226562 60.75 103.511719 59.949219 104.644531 C 60.140625 104.660156 60.238281 104.691406 60.328125 104.671875 C 62.636719 104.222656 62.757812 104.269531 63.453125 106.421875 C 63.699219 107.1875 64.070312 107.683594 64.917969 107.777344 C 66.644531 107.964844 67.664062 108.859375 68.085938 110.628906 C 68.691406 113.15625 69.113281 112.34375 67.105469 114.214844 C 66.058594 115.191406 64.863281 115.800781 63.640625 116.429688 C 59.304688 118.664062 54.976562 120.914062 50.636719 123.132812 C 49.988281 123.464844 49.640625 123.902344 49.507812 124.621094 C 49.328125 125.621094 49.011719 126.59375 48.804688 127.589844 C 48.707031 128.066406 48.503906 128.277344 48.015625 128.25 C 44.535156 128.050781 41.039062 128.179688 37.558594 127.882812 C 37.425781 127.871094 37.292969 127.859375 37.164062 127.867188 C 33.269531 128.011719 29.386719 127.695312 25.496094 127.621094 C 20.589844 127.527344 15.6875 127.28125 10.78125 127.242188 C 10.160156 127.238281 9.542969 127.101562 8.921875 127.054688 C 8.46875 127.019531 8.355469 126.703125 8.199219 126.359375 C 7.132812 124.027344 6.761719 121.53125 6.421875 119.023438 C 5.980469 115.773438 5.519531 112.53125 5.074219 109.28125 C 4.855469 107.691406 4.65625 106.097656 4.4375 104.503906 C 4.335938 103.761719 4.609375 103.164062 5.046875 102.59375 C 6.1875 101.105469 7.320312 99.613281 8.429688 98.105469 C 8.71875 97.714844 9.070312 97.5625 9.53125 97.59375 C 12.9375 97.820312 16.359375 97.847656 19.761719 98.164062 C 21.171875 98.296875 22.585938 98.195312 24.003906 98.34375 C 25.996094 98.550781 28.011719 98.503906 30.019531 98.589844 C 31.199219 98.640625 32.371094 98.824219 33.5625 98.792969 C 34.269531 98.777344 34.566406 98.574219 34.5625 97.824219 C 34.558594 96.496094 34.671875 96.492188 35.96875 96.390625 C 38.683594 96.175781 41.386719 95.875 44.101562 95.640625 C 46.097656 95.46875 48.097656 95.339844 50.183594 95.175781 M 64.558594 113.644531 C 65.039062 113.242188 65.523438 112.847656 65.996094 112.429688 C 66.359375 112.109375 66.265625 111.734375 66.089844 111.347656 C 65.878906 110.882812 65.558594 111.101562 65.253906 111.191406 C 63.769531 111.621094 62.34375 112.21875 60.96875 112.914062 C 57.640625 114.59375 54.335938 116.328125 51.019531 118.027344 C 48.105469 119.519531 48.082031 119.507812 47.589844 122.742188 C 47.441406 123.707031 47.097656 124.148438 46.007812 124.109375 C 40.769531 123.917969 35.523438 123.824219 30.277344 123.671875 C 23.847656 123.492188 17.421875 123.289062 10.992188 123.089844 C 10.28125 123.070312 9.566406 123.136719 9.574219 124.03125 C 9.578125 124.835938 10.09375 125.136719 10.953125 125.191406 C 14.382812 125.402344 17.8125 125.359375 21.242188 125.492188 C 28.988281 125.800781 36.742188 125.945312 44.492188 126.121094 C 47.074219 126.183594 47.113281 126.144531 47.605469 123.582031 C 47.800781 122.578125 48.265625 121.992188 49.1875 121.527344 C 54.292969 118.964844 59.359375 116.332031 64.558594 113.644531 M 57.957031 100.871094 C 57.410156 101.390625 56.867188 101.910156 56.335938 102.417969 C 57.503906 103.933594 58.195312 103.859375 58.898438 102.246094 C 59.109375 101.761719 59.285156 101.261719 59.503906 100.78125 C 59.765625 100.210938 59.628906 99.746094 59.203125 99.242188 C 58.824219 99.832031 58.71875 100.519531 57.957031 100.871094 Z M 57.957031 100.871094 " fill-opacity="1" fill-rule="nonzero"/></g><path fill="#000000" d="M 131.375 67.59375 C 132.792969 69.324219 134.167969 71 135.519531 72.6875 C 137.53125 75.195312 139.503906 77.734375 141.539062 80.222656 C 142.25 81.09375 142.617188 82 142.476562 83.117188 C 142.433594 83.441406 142.425781 83.785156 142.476562 84.105469 C 142.65625 85.261719 142.078125 86.011719 141.367188 86.875 C 139.488281 89.15625 137.167969 90.953125 135.035156 92.949219 C 131.457031 96.289062 127.738281 99.484375 124.085938 102.75 C 123.128906 103.605469 122.140625 104.433594 121.273438 105.371094 C 120.183594 106.558594 119.011719 106.957031 117.367188 106.664062 C 111.972656 105.714844 106.554688 104.917969 101.144531 104.066406 C 98.195312 103.597656 95.25 103.136719 92.300781 102.664062 C 91.726562 102.574219 91.308594 102.3125 91.414062 101.625 C 91.417969 101.589844 91.417969 101.558594 91.414062 101.523438 C 91.078125 99.308594 91.703125 97.441406 93.621094 96.003906 C 92.59375 95.414062 91.613281 95.511719 90.710938 95.394531 C 87.621094 94.992188 84.519531 94.695312 81.425781 94.363281 C 80.859375 94.304688 80.476562 94.089844 80.519531 93.441406 C 80.523438 93.410156 80.519531 93.378906 80.519531 93.34375 C 80.371094 90.140625 80.375 90.148438 83.246094 88.675781 C 89.933594 85.246094 96.621094 81.8125 103.300781 78.367188 C 105.996094 76.976562 108.679688 75.566406 111.359375 74.152344 C 112.398438 73.605469 113.042969 72.597656 113.980469 71.910156 C 114.929688 71.214844 115.792969 70.375 116.585938 69.5 C 117.21875 68.792969 117.992188 68.574219 118.847656 68.480469 C 122.496094 68.082031 126.148438 67.683594 129.800781 67.308594 C 130.308594 67.257812 130.863281 67.132812 131.375 67.59375 M 93.8125 99.878906 C 93.148438 100.667969 93.761719 100.851562 94.359375 100.945312 C 102.097656 102.15625 109.84375 103.332031 117.574219 104.589844 C 118.5625 104.75 119.179688 104.464844 119.855469 103.847656 C 124.421875 99.699219 129.015625 95.578125 133.59375 91.441406 C 135.800781 89.453125 138.078125 87.542969 140.035156 85.292969 C 140.335938 84.945312 140.707031 84.636719 140.359375 83.820312 C 139.667969 84.585938 139.105469 85.320312 138.433594 85.929688 C 132.691406 91.144531 126.890625 96.292969 121.199219 101.5625 C 119.933594 102.734375 118.804688 103.050781 117.097656 102.746094 C 110.941406 101.648438 104.757812 100.730469 98.574219 99.800781 C 97.042969 99.570312 95.480469 98.953125 93.8125 99.878906 M 94.203125 93.8125 C 95.570312 93.875 95.910156 93.648438 96.292969 92.445312 C 96.128906 92.171875 95.851562 92.199219 95.59375 92.167969 C 93.503906 91.914062 91.414062 91.691406 89.332031 91.394531 C 87.332031 91.113281 85.347656 91.019531 83.382812 91.59375 C 83.027344 91.699219 82.570312 91.652344 82.464844 92.277344 C 83.613281 92.695312 84.828125 92.683594 86.007812 92.835938 C 88.679688 93.175781 91.359375 93.46875 94.203125 93.8125 Z M 94.203125 93.8125 " fill-opacity="1" fill-rule="nonzero"/><path fill="#000000" d="M 95.335938 28.332031 C 96.675781 27.839844 97.71875 28.257812 98.027344 29.34375 C 98.316406 30.347656 97.742188 31.359375 96.707031 31.625 C 95.871094 31.84375 95.222656 31.480469 94.761719 30.820312 C 94.238281 30.0625 94.441406 29.210938 95.335938 28.332031 Z M 95.335938 28.332031 " fill-opacity="1" fill-rule="nonzero"/><path fill="#000000" d="M 80.414062 28.121094 C 81.191406 27.570312 81.933594 27.484375 82.675781 27.984375 C 83.316406 28.414062 83.519531 29.0625 83.402344 29.796875 C 83.28125 30.550781 82.796875 31.015625 82.074219 31.222656 C 81.277344 31.449219 80.625 31.140625 80.179688 30.515625 C 79.613281 29.722656 79.722656 28.910156 80.414062 28.121094 Z M 80.414062 28.121094 " fill-opacity="1" fill-rule="nonzero"/><g fill="#000000" fill-opacity="1"><g transform="translate(163.761888, 87.060907)"><g><path d="M 8.578125 -41.453125 C 7.078125 -41.453125 5.78125 -41.914062 4.6875 -42.84375 C 3.601562 -43.78125 3.0625 -45.023438 3.0625 -46.578125 C 3.0625 -48.085938 3.601562 -49.316406 4.6875 -50.265625 C 5.78125 -51.222656 7.078125 -51.703125 8.578125 -51.703125 C 10.085938 -51.703125 11.382812 -51.222656 12.46875 -50.265625 C 13.5625 -49.316406 14.109375 -48.085938 14.109375 -46.578125 C 14.109375 -45.023438 13.5625 -43.78125 12.46875 -42.84375 C 11.382812 -41.914062 10.085938 -41.453125 8.578125 -41.453125 Z M 13.046875 0 L 4.0625 0 L 4.0625 -37.328125 L 13.046875 -37.328125 Z M 13.046875 0 "/></g></g></g><g fill="#000000" fill-opacity="1"><g transform="translate(192.907734, 87.060907)"><g><path d="M 34.53125 0 L 2.0625 0 L 2.0625 -5.921875 L 23.296875 -30.078125 L 3.1875 -30.078125 L 3.1875 -37.328125 L 34.609375 -37.328125 L 34.609375 -30.875 L 14.109375 -7.25 L 34.53125 -7.25 Z M 34.53125 0 "/></g></g></g><g fill="#000000" fill-opacity="1"><g transform="translate(241.816914, 87.060907)"><g><path d="M 34.53125 0 L 2.0625 0 L 2.0625 -5.921875 L 23.296875 -30.078125 L 3.1875 -30.078125 L 3.1875 -37.328125 L 34.609375 -37.328125 L 34.609375 -30.875 L 14.109375 -7.25 L 34.53125 -7.25 Z M 34.53125 0 "/></g></g></g><g fill="#000000" fill-opacity="1"><g transform="translate(290.726093, 87.060907)"><g><path d="M 10.84375 13.4375 L 4.65625 13.4375 L 4.65625 5.859375 L 8.71875 5.859375 C 9.875 5.859375 10.828125 5.691406 11.578125 5.359375 C 12.328125 5.023438 12.972656 4.171875 13.515625 2.796875 L 14.5 0.140625 L 0.734375 -37.328125 L 10.453125 -37.328125 L 19.171875 -9.921875 L 27.015625 -37.328125 L 36.671875 -37.328125 L 22.15625 4.390625 C 21.007812 7.722656 19.601562 10.0625 17.9375 11.40625 C 16.269531 12.757812 13.90625 13.4375 10.84375 13.4375 Z M 10.84375 13.4375 "/></g></g></g><g fill="#000000" fill-opacity="1"><g transform="translate(340.300673, 87.060907)"><g><path d="M 51.90625 -25.421875 C 51.90625 -21.472656 51.269531 -17.722656 50 -14.171875 C 48.738281 -10.617188 46.800781 -7.625 44.1875 -5.1875 L 51.109375 5.796875 L 40.390625 5.796875 L 36.40625 -0.53125 C 35.03125 -0.0820312 33.585938 0.269531 32.078125 0.53125 C 30.566406 0.800781 28.945312 0.9375 27.21875 0.9375 C 23.050781 0.9375 19.410156 0.226562 16.296875 -1.1875 C 13.191406 -2.613281 10.628906 -4.546875 8.609375 -6.984375 C 6.597656 -9.421875 5.09375 -12.222656 4.09375 -15.390625 C 3.09375 -18.566406 2.59375 -21.910156 2.59375 -25.421875 C 2.59375 -28.921875 3.09375 -32.253906 4.09375 -35.421875 C 5.09375 -38.597656 6.597656 -41.40625 8.609375 -43.84375 C 10.628906 -46.289062 13.191406 -48.210938 16.296875 -49.609375 C 19.410156 -51.003906 23.050781 -51.703125 27.21875 -51.703125 C 31.4375 -51.703125 35.097656 -51.003906 38.203125 -49.609375 C 41.304688 -48.210938 43.863281 -46.289062 45.875 -43.84375 C 47.894531 -41.40625 49.40625 -38.597656 50.40625 -35.421875 C 51.40625 -32.253906 51.90625 -28.921875 51.90625 -25.421875 Z M 12.578125 -25.421875 C 12.578125 -21.910156 13.148438 -18.8125 14.296875 -16.125 C 15.453125 -13.445312 17.128906 -11.363281 19.328125 -9.875 C 21.523438 -8.394531 24.15625 -7.65625 27.21875 -7.65625 C 30.363281 -7.65625 33.023438 -8.394531 35.203125 -9.875 C 37.378906 -11.363281 39.039062 -13.445312 40.1875 -16.125 C 41.34375 -18.8125 41.921875 -21.910156 41.921875 -25.421875 C 41.921875 -28.921875 41.34375 -31.988281 40.1875 -34.625 C 39.039062 -37.269531 37.378906 -39.335938 35.203125 -40.828125 C 33.023438 -42.316406 30.363281 -43.0625 27.21875 -43.0625 C 24.15625 -43.0625 21.523438 -42.316406 19.328125 -40.828125 C 17.128906 -39.335938 15.453125 -37.269531 14.296875 -34.625 C 13.148438 -31.988281 12.578125 -28.921875 12.578125 -25.421875 Z M 12.578125 -25.421875 "/></g></g></g><g fill="#000000" fill-opacity="1"><g transform="translate(406.976902, 87.060907)"><g><path d="M 20.234375 0.734375 C 17.390625 0.734375 14.679688 0.28125 12.109375 -0.625 C 9.535156 -1.539062 7.375 -2.984375 5.625 -4.953125 C 3.875 -6.929688 2.773438 -9.472656 2.328125 -12.578125 L 11.1875 -12.578125 C 11.757812 -10.535156 12.820312 -8.984375 14.375 -7.921875 C 15.925781 -6.859375 17.851562 -6.328125 20.15625 -6.328125 C 22.070312 -6.328125 23.648438 -6.703125 24.890625 -7.453125 C 26.128906 -8.203125 26.75 -9.265625 26.75 -10.640625 C 26.75 -11.753906 26.335938 -12.628906 25.515625 -13.265625 C 24.703125 -13.910156 23.628906 -14.410156 22.296875 -14.765625 C 20.960938 -15.128906 19.5 -15.460938 17.90625 -15.765625 C 16.300781 -16.078125 14.664062 -16.453125 13 -16.890625 C 11.34375 -17.335938 9.828125 -17.945312 8.453125 -18.71875 C 7.078125 -19.5 5.96875 -20.546875 5.125 -21.859375 C 4.28125 -23.171875 3.859375 -24.867188 3.859375 -26.953125 C 3.859375 -29.566406 4.523438 -31.691406 5.859375 -33.328125 C 7.191406 -34.972656 8.953125 -36.179688 11.140625 -36.953125 C 13.335938 -37.734375 15.722656 -38.125 18.296875 -38.125 C 22.648438 -38.125 26.289062 -37.023438 29.21875 -34.828125 C 32.144531 -32.640625 33.941406 -29.503906 34.609375 -25.421875 L 26.15625 -25.421875 C 25.625 -27.460938 24.625 -28.914062 23.15625 -29.78125 C 21.695312 -30.644531 20.054688 -31.078125 18.234375 -31.078125 C 16.460938 -31.078125 15.050781 -30.734375 14 -30.046875 C 12.957031 -29.359375 12.4375 -28.4375 12.4375 -27.28125 C 12.4375 -26.257812 12.835938 -25.457031 13.640625 -24.875 C 14.441406 -24.300781 15.492188 -23.859375 16.796875 -23.546875 C 18.109375 -23.242188 19.519531 -22.9375 21.03125 -22.625 C 22.664062 -22.3125 24.335938 -21.941406 26.046875 -21.515625 C 27.753906 -21.097656 29.328125 -20.5 30.765625 -19.71875 C 32.210938 -18.945312 33.378906 -17.882812 34.265625 -16.53125 C 35.160156 -15.175781 35.609375 -13.4375 35.609375 -11.3125 C 35.609375 -7.675781 34.253906 -4.757812 31.546875 -2.5625 C 28.835938 -0.363281 25.066406 0.734375 20.234375 0.734375 Z M 20.234375 0.734375 "/></g></g></g></svg>