<svg xmlns="http://www.w3.org/2000/svg" xmlns:xlink="http://www.w3.org/1999/xlink" width="1080" zoomAndPan="magnify" viewBox="0 0 810 809.999993" height="1080" preserveAspectRatio="xMidYMid meet" version="1.0"><defs><g/><clipPath id="44117154b3"><path d="M 63.476562 450 L 381 450 L 381 618 L 63.476562 618 Z M 63.476562 450 " clip-rule="nonzero"/></clipPath><clipPath id="d6e517c3d2"><path d="M 439 315 L 746.726562 315 L 746.726562 512 L 439 512 Z M 439 315 " clip-rule="nonzero"/></clipPath></defs><path fill="#000000" d="M 423.597656 22.328125 C 445.925781 21.601562 467.339844 23.992188 487.785156 32.136719 C 499.324219 36.730469 510.058594 42.703125 519.722656 50.800781 C 535.253906 63.808594 545.183594 80.203125 550.980469 99.289062 C 553.578125 107.847656 555.398438 116.660156 555.242188 125.671875 C 555.085938 134.792969 556.15625 143.949219 554.398438 153.035156 C 553.871094 155.746094 554.625 157.363281 558.015625 157.988281 C 568.378906 159.894531 578.421875 157.667969 588.523438 156.304688 C 597.261719 155.128906 605.441406 151.625 613.992188 149.632812 C 614.625 149.484375 615.222656 149.160156 615.859375 149.058594 C 627.164062 147.1875 631.640625 151.117188 631.890625 162.539062 C 632.242188 178.5 626.234375 192.4375 618.382812 205.742188 C 604.53125 229.210938 585.097656 245.722656 558.144531 252.039062 C 549.183594 254.140625 540.011719 255.613281 530.613281 253.820312 C 522.5 252.273438 520.125 254.273438 516.019531 264.070312 C 513.980469 268.9375 512.960938 274.054688 512.445312 279.21875 C 511.785156 285.789062 511.660156 292.414062 511.320312 298.753906 C 512.796875 299.605469 513.769531 299.242188 514.613281 298.808594 C 525.511719 293.164062 537.199219 291.730469 549.261719 292.207031 C 553.390625 292.371094 557.351562 293.359375 561.019531 295.136719 C 567.46875 298.257812 570.164062 304.386719 568.582031 311.394531 C 565.53125 324.929688 557.511719 334.660156 545.792969 341.710938 C 530.863281 350.691406 516.023438 359.816406 501.136719 368.871094 C 493.617188 373.441406 485.667969 373.816406 477.699219 370.546875 C 469.0625 367.007812 466.425781 361.285156 469.335938 352.507812 C 470.753906 348.238281 470.335938 346.15625 465.324219 345.71875 C 451.863281 344.542969 439.195312 339.5 425.941406 337.257812 C 423.488281 336.839844 421.136719 337.203125 418.730469 337.972656 C 397.703125 344.675781 376.070312 346.652344 354.140625 345.796875 C 348.96875 345.597656 343.835938 344.519531 338.671875 343.953125 C 327.285156 342.703125 317.492188 348.015625 307.300781 351.667969 C 306.078125 352.105469 304.890625 352.746094 303.628906 352.960938 C 295.65625 354.324219 290.359375 359.496094 284.539062 364.699219 C 272.804688 375.191406 258.605469 381.457031 243.023438 384.085938 C 229.128906 386.429688 215.46875 385.132812 202.15625 380.378906 C 197.761719 378.808594 193.949219 376.402344 190.777344 373.007812 C 186.351562 368.273438 186.425781 364.324219 191.035156 359.851562 C 196.246094 354.792969 202.832031 351.71875 208.785156 347.734375 C 222.335938 338.652344 236.027344 329.777344 249.667969 320.824219 C 250.621094 320.195312 251.574219 319.558594 252.574219 319.011719 C 260.554688 314.664062 261.339844 312.246094 260.011719 303.121094 C 258.328125 291.546875 254.449219 280.746094 249.804688 270.148438 C 247.375 264.609375 245.753906 258.863281 244.925781 252.199219 C 234.367188 254.792969 223.824219 254.421875 213.300781 254.777344 C 196.03125 255.355469 181.085938 249.625 167.320312 239.761719 C 161.121094 235.316406 156.089844 229.910156 151.90625 223.546875 C 148.140625 217.820312 147.941406 211.558594 148.488281 205.15625 C 148.6875 202.816406 150.359375 201.203125 152.316406 199.75 C 160.582031 193.636719 170.246094 190.402344 179.511719 186.410156 C 207.273438 174.449219 234.488281 161.449219 260.117188 145.3125 C 262.738281 143.664062 264.480469 141.496094 265.738281 138.753906 C 273.59375 121.585938 283.539062 105.675781 295.457031 91.082031 C 321.078125 59.703125 352.261719 36.539062 392.292969 26.832031 C 402.417969 24.378906 412.75 23.175781 423.597656 22.328125 M 541.875 147.476562 C 542.488281 135.582031 543.300781 123.695312 540.9375 111.867188 C 539.964844 107.003906 538.402344 102.386719 535.714844 98.226562 C 530.234375 89.75 520.222656 88.203125 512.394531 94.570312 C 509.566406 96.871094 507.386719 99.722656 505.773438 102.992188 C 500.242188 114.222656 500.402344 126.625 497.949219 138.574219 C 505.097656 141.316406 511.980469 143.53125 517.71875 148.0625 C 523.28125 152.453125 523.265625 157.558594 517.683594 161.796875 C 515.582031 163.394531 513.195312 164.445312 510.730469 165.359375 C 499.148438 169.652344 487.160156 170.480469 475.066406 168.960938 C 464.984375 167.691406 455.214844 164.910156 446.34375 159.738281 C 443.136719 157.871094 439.742188 155.867188 439.84375 151.285156 C 439.949219 146.464844 443.65625 144.691406 447.117188 142.917969 C 451.632812 140.601562 456.476562 139.097656 461.460938 138.070312 C 463.242188 137.703125 465.167969 137.238281 465.007812 134.808594 C 464.398438 125.695312 464.503906 116.449219 462.925781 107.503906 C 459.035156 85.492188 435.835938 70.652344 413.109375 74.375 C 394.921875 77.359375 380.140625 86.410156 367.03125 98.699219 C 346.398438 118.042969 331.894531 141.589844 320.730469 167.332031 C 309.101562 194.148438 302.609375 221.925781 307.128906 251.28125 C 310.613281 273.925781 321.238281 292.628906 340.617188 305.527344 C 362.703125 320.222656 387.574219 323.058594 413.078125 320.210938 C 435.964844 317.65625 456.308594 307.929688 474.597656 294.03125 C 502.082031 273.136719 518.476562 244.773438 528.96875 212.539062 C 535.761719 191.671875 539.496094 170.164062 541.875 147.476562 Z M 541.875 147.476562 " fill-opacity="1" fill-rule="nonzero"/><g clip-path="url(#44117154b3)"><path fill="#000000" d="M 289.570312 453.910156 C 299.066406 452.933594 308.253906 452.746094 317.128906 450.980469 C 325.988281 449.214844 331.792969 454.792969 338.742188 457.789062 C 340.257812 458.441406 340.753906 459.875 341.25 461.238281 C 343.144531 466.4375 345.003906 471.652344 346.824219 476.878906 C 347.554688 478.972656 347.378906 481.027344 346.371094 483.042969 C 343.480469 488.832031 341.90625 495.210938 337.933594 500.804688 C 338.886719 500.886719 339.375 501.039062 339.816406 500.953125 C 351.25 498.730469 351.851562 498.953125 355.296875 509.613281 C 356.523438 513.410156 358.355469 515.859375 362.558594 516.324219 C 371.109375 517.269531 376.15625 521.699219 378.25 530.449219 C 381.25 542.96875 383.332031 538.941406 373.390625 548.214844 C 368.195312 553.0625 362.285156 556.066406 356.226562 559.191406 C 334.753906 570.261719 313.320312 581.40625 291.804688 592.394531 C 288.597656 594.035156 286.875 596.199219 286.226562 599.769531 C 285.324219 604.714844 283.761719 609.539062 282.746094 614.46875 C 282.261719 616.820312 281.25 617.871094 278.839844 617.734375 C 261.585938 616.738281 244.273438 617.390625 227.035156 615.914062 C 226.382812 615.859375 225.726562 615.804688 225.078125 615.832031 C 205.792969 616.554688 186.554688 614.980469 167.292969 614.613281 C 143 614.148438 118.714844 612.9375 94.402344 612.75 C 91.332031 612.726562 88.273438 612.039062 85.195312 611.8125 C 82.949219 611.644531 82.390625 610.070312 81.617188 608.375 C 76.335938 596.824219 74.488281 584.460938 72.808594 572.035156 C 70.632812 555.945312 68.351562 539.871094 66.144531 523.785156 C 65.0625 515.902344 64.078125 508.007812 62.988281 500.125 C 62.480469 496.449219 63.835938 493.484375 66.011719 490.648438 C 71.660156 483.292969 77.257812 475.894531 82.761719 468.429688 C 84.199219 466.484375 85.925781 465.746094 88.214844 465.898438 C 105.097656 467.019531 122.035156 467.140625 138.894531 468.722656 C 145.863281 469.375 152.871094 468.878906 159.898438 469.613281 C 169.765625 470.640625 179.757812 470.40625 189.695312 470.824219 C 195.546875 471.070312 201.347656 471.996094 207.246094 471.839844 C 210.746094 471.746094 212.21875 470.753906 212.207031 467.039062 C 212.183594 460.457031 212.738281 460.429688 219.167969 459.925781 C 232.605469 458.871094 246.007812 457.378906 259.4375 456.214844 C 269.324219 455.359375 279.230469 454.734375 289.570312 453.910156 M 360.773438 545.402344 C 363.148438 543.398438 365.558594 541.4375 367.882812 539.382812 C 369.6875 537.789062 369.234375 535.925781 368.355469 534.007812 C 367.308594 531.714844 365.722656 532.792969 364.210938 533.230469 C 356.855469 535.375 349.800781 538.335938 342.992188 541.777344 C 326.503906 550.101562 310.144531 558.679688 293.703125 567.101562 C 279.285156 574.488281 279.171875 574.4375 276.722656 590.453125 C 275.992188 595.234375 274.289062 597.421875 268.898438 597.226562 C 242.933594 596.285156 216.953125 595.804688 190.980469 595.066406 C 159.132812 594.160156 127.289062 593.164062 95.445312 592.183594 C 91.9375 592.074219 88.394531 592.414062 88.429688 596.832031 C 88.457031 600.828125 91.003906 602.320312 95.265625 602.582031 C 112.238281 603.625 129.238281 603.40625 146.21875 604.082031 C 184.585938 605.601562 222.988281 606.3125 261.378906 607.195312 C 274.160156 607.492188 274.363281 607.3125 276.808594 594.605469 C 277.769531 589.632812 280.078125 586.738281 284.644531 584.441406 C 309.917969 571.742188 335.015625 558.699219 360.773438 545.402344 M 328.070312 482.132812 C 325.375 484.707031 322.675781 487.277344 320.039062 489.792969 C 325.820312 497.289062 329.261719 496.921875 332.738281 488.929688 C 333.777344 486.53125 334.652344 484.0625 335.738281 481.6875 C 337.027344 478.855469 336.347656 476.554688 334.25 474.050781 C 332.375 476.980469 331.847656 480.382812 328.070312 482.132812 Z M 328.070312 482.132812 " fill-opacity="1" fill-rule="nonzero"/></g><g clip-path="url(#d6e517c3d2)"><path fill="#000000" d="M 691.710938 317.292969 C 698.75 325.878906 705.550781 334.160156 712.25 342.527344 C 722.203125 354.957031 731.972656 367.53125 742.054688 379.855469 C 745.578125 384.15625 747.410156 388.648438 746.707031 394.1875 C 746.5 395.796875 746.464844 397.488281 746.710938 399.085938 C 747.601562 404.816406 744.738281 408.527344 741.210938 412.804688 C 731.898438 424.09375 720.414062 433.007812 709.847656 442.878906 C 692.121094 459.4375 673.707031 475.257812 655.617188 491.429688 C 650.878906 495.664062 645.976562 499.765625 641.683594 504.421875 C 636.28125 510.285156 630.492188 512.265625 622.335938 510.824219 C 595.625 506.109375 568.777344 502.175781 541.984375 497.941406 C 527.386719 495.636719 512.785156 493.34375 498.1875 491.007812 C 495.328125 490.550781 493.273438 489.261719 493.785156 485.851562 C 493.808594 485.691406 493.804688 485.523438 493.78125 485.363281 C 492.128906 474.390625 495.222656 465.136719 504.722656 458.015625 C 499.636719 455.105469 494.78125 455.585938 490.296875 455 C 475.007812 453 459.644531 451.535156 444.308594 449.894531 C 441.511719 449.59375 439.621094 448.527344 439.832031 445.332031 C 439.84375 445.171875 439.832031 445.007812 439.824219 444.84375 C 439.089844 428.96875 439.113281 429.019531 453.335938 421.722656 C 486.464844 404.734375 519.578125 387.71875 552.667969 370.660156 C 566.015625 363.777344 579.308594 356.789062 592.589844 349.785156 C 597.71875 347.078125 600.925781 342.082031 605.558594 338.683594 C 610.261719 335.234375 614.546875 331.078125 618.464844 326.734375 C 621.609375 323.246094 625.425781 322.164062 629.660156 321.699219 C 647.742188 319.710938 665.824219 317.746094 683.917969 315.890625 C 686.433594 315.636719 689.179688 315.023438 691.710938 317.292969 M 505.671875 477.210938 C 502.378906 481.117188 505.421875 482.019531 508.378906 482.484375 C 546.707031 488.496094 585.066406 494.316406 623.355469 500.542969 C 628.257812 501.339844 631.3125 499.917969 634.65625 496.875 C 657.28125 476.324219 680.03125 455.910156 702.71875 435.425781 C 713.632812 425.570312 724.925781 416.113281 734.605469 404.960938 C 736.09375 403.242188 737.933594 401.710938 736.222656 397.671875 C 732.789062 401.460938 730.007812 405.09375 726.675781 408.121094 C 698.230469 433.9375 669.503906 459.449219 641.316406 485.542969 C 635.046875 491.347656 629.460938 492.929688 620.996094 491.414062 C 590.515625 485.96875 559.871094 481.433594 529.253906 476.816406 C 521.671875 475.671875 513.933594 472.632812 505.671875 477.210938 M 507.609375 447.164062 C 514.378906 447.464844 516.066406 446.359375 517.945312 440.386719 C 517.148438 439.035156 515.761719 439.167969 514.484375 439.015625 C 504.148438 437.757812 493.792969 436.648438 483.484375 435.195312 C 473.570312 433.796875 463.75 433.328125 454.007812 436.171875 C 452.25 436.6875 449.980469 436.453125 449.457031 439.558594 C 455.148438 441.632812 461.171875 441.574219 467.015625 442.316406 C 480.25 444 493.511719 445.46875 507.609375 447.164062 Z M 507.609375 447.164062 " fill-opacity="1" fill-rule="nonzero"/></g><path fill="#000000" d="M 513.21875 122.835938 C 519.847656 120.398438 525.015625 122.464844 526.550781 127.835938 C 527.976562 132.824219 525.136719 137.832031 520.011719 139.148438 C 515.855469 140.21875 512.648438 138.4375 510.371094 135.152344 C 507.769531 131.402344 508.777344 127.1875 513.21875 122.835938 Z M 513.21875 122.835938 " fill-opacity="1" fill-rule="nonzero"/><path fill="#000000" d="M 439.3125 121.78125 C 443.152344 119.0625 446.839844 118.625 450.511719 121.105469 C 453.671875 123.242188 454.695312 126.445312 454.109375 130.082031 C 453.507812 133.832031 451.101562 136.121094 447.527344 137.148438 C 443.578125 138.277344 440.355469 136.742188 438.148438 133.644531 C 435.34375 129.710938 435.878906 125.695312 439.3125 121.78125 Z M 439.3125 121.78125 " fill-opacity="1" fill-rule="nonzero"/><g fill="#000000" fill-opacity="1"><g transform="translate(103.237359, 777.469549)"><g><path d="M 18.40625 -88.859375 C 15.164062 -88.859375 12.378906 -89.859375 10.046875 -91.859375 C 7.722656 -93.859375 6.5625 -96.519531 6.5625 -99.84375 C 6.5625 -103.082031 7.722656 -105.722656 10.046875 -107.765625 C 12.378906 -109.804688 15.164062 -110.828125 18.40625 -110.828125 C 21.632812 -110.828125 24.410156 -109.804688 26.734375 -107.765625 C 29.066406 -105.722656 30.234375 -103.082031 30.234375 -99.84375 C 30.234375 -96.519531 29.066406 -93.859375 26.734375 -91.859375 C 24.410156 -89.859375 21.632812 -88.859375 18.40625 -88.859375 Z M 27.953125 0 L 8.703125 0 L 8.703125 -80.015625 L 27.953125 -80.015625 Z M 27.953125 0 "/></g></g></g><g fill="#000000" fill-opacity="1"><g transform="translate(165.714402, 777.469549)"><g><path d="M 74.03125 0 L 4.421875 0 L 4.421875 -12.6875 L 49.921875 -64.46875 L 6.84375 -64.46875 L 6.84375 -80.015625 L 74.171875 -80.015625 L 74.171875 -66.1875 L 30.234375 -15.546875 L 74.03125 -15.546875 Z M 74.03125 0 "/></g></g></g><g fill="#000000" fill-opacity="1"><g transform="translate(270.555849, 777.469549)"><g><path d="M 74.03125 0 L 4.421875 0 L 4.421875 -12.6875 L 49.921875 -64.46875 L 6.84375 -64.46875 L 6.84375 -80.015625 L 74.171875 -80.015625 L 74.171875 -66.1875 L 30.234375 -15.546875 L 74.03125 -15.546875 Z M 74.03125 0 "/></g></g></g><g fill="#000000" fill-opacity="1"><g transform="translate(375.397287, 777.469549)"><g><path d="M 23.25 28.8125 L 9.984375 28.8125 L 9.984375 12.546875 L 18.6875 12.546875 C 21.15625 12.546875 23.195312 12.1875 24.8125 11.46875 C 26.4375 10.757812 27.816406 8.929688 28.953125 5.984375 L 31.09375 0.28125 L 1.5625 -80.015625 L 22.390625 -80.015625 L 41.078125 -21.25 L 57.90625 -80.015625 L 78.59375 -80.015625 L 47.5 9.421875 C 45.03125 16.546875 42.007812 21.554688 38.4375 24.453125 C 34.875 27.359375 29.8125 28.8125 23.25 28.8125 Z M 23.25 28.8125 "/></g></g></g><g fill="#000000" fill-opacity="1"><g transform="translate(481.665156, 777.469549)"><g><path d="M 111.265625 -54.484375 C 111.265625 -46.023438 109.90625 -37.988281 107.1875 -30.375 C 104.476562 -22.769531 100.320312 -16.351562 94.71875 -11.125 L 109.546875 12.40625 L 86.578125 12.40625 L 78.03125 -1.140625 C 75.082031 -0.191406 71.988281 0.566406 68.75 1.140625 C 65.519531 1.710938 62.050781 2 58.34375 2 C 49.40625 2 41.609375 0.476562 34.953125 -2.5625 C 28.296875 -5.601562 22.800781 -9.738281 18.46875 -14.96875 C 14.144531 -20.207031 10.910156 -26.222656 8.765625 -33.015625 C 6.628906 -39.816406 5.5625 -46.972656 5.5625 -54.484375 C 5.5625 -61.992188 6.628906 -69.148438 8.765625 -75.953125 C 10.910156 -82.753906 14.144531 -88.769531 18.46875 -94 C 22.800781 -99.226562 28.296875 -103.335938 34.953125 -106.328125 C 41.609375 -109.328125 49.40625 -110.828125 58.34375 -110.828125 C 67.375 -110.828125 75.21875 -109.328125 81.875 -106.328125 C 88.53125 -103.335938 94.019531 -99.226562 98.34375 -94 C 102.675781 -88.769531 105.910156 -82.753906 108.046875 -75.953125 C 110.191406 -69.148438 111.265625 -61.992188 111.265625 -54.484375 Z M 26.953125 -54.484375 C 26.953125 -46.972656 28.1875 -40.335938 30.65625 -34.578125 C 33.132812 -28.828125 36.726562 -24.359375 41.4375 -21.171875 C 46.144531 -17.992188 51.78125 -16.40625 58.34375 -16.40625 C 65.09375 -16.40625 70.796875 -17.992188 75.453125 -21.171875 C 80.117188 -24.359375 83.6875 -28.828125 86.15625 -34.578125 C 88.625 -40.335938 89.859375 -46.972656 89.859375 -54.484375 C 89.859375 -61.992188 88.625 -68.578125 86.15625 -74.234375 C 83.6875 -79.898438 80.117188 -84.320312 75.453125 -87.5 C 70.796875 -90.6875 65.09375 -92.28125 58.34375 -92.28125 C 51.78125 -92.28125 46.144531 -90.6875 41.4375 -87.5 C 36.726562 -84.320312 33.132812 -79.898438 30.65625 -74.234375 C 28.1875 -68.578125 26.953125 -61.992188 26.953125 -54.484375 Z M 26.953125 -54.484375 "/></g></g></g><g fill="#000000" fill-opacity="1"><g transform="translate(624.591769, 777.469549)"><g><path d="M 43.359375 1.5625 C 37.273438 1.5625 31.472656 0.585938 25.953125 -1.359375 C 20.441406 -3.304688 15.804688 -6.394531 12.046875 -10.625 C 8.296875 -14.851562 5.945312 -20.296875 5 -26.953125 L 23.96875 -26.953125 C 25.195312 -22.578125 27.472656 -19.25 30.796875 -16.96875 C 34.128906 -14.6875 38.269531 -13.546875 43.21875 -13.546875 C 47.3125 -13.546875 50.6875 -14.351562 53.34375 -15.96875 C 56.007812 -17.59375 57.34375 -19.878906 57.34375 -22.828125 C 57.34375 -25.203125 56.460938 -27.078125 54.703125 -28.453125 C 52.941406 -29.835938 50.632812 -30.910156 47.78125 -31.671875 C 44.925781 -32.429688 41.789062 -33.144531 38.375 -33.8125 C 34.945312 -34.46875 31.445312 -35.269531 27.875 -36.21875 C 24.3125 -37.175781 21.054688 -38.488281 18.109375 -40.15625 C 15.160156 -41.820312 12.78125 -44.054688 10.96875 -46.859375 C 9.164062 -49.660156 8.265625 -53.296875 8.265625 -57.765625 C 8.265625 -63.378906 9.691406 -67.941406 12.546875 -71.453125 C 15.398438 -74.972656 19.179688 -77.566406 23.890625 -79.234375 C 28.597656 -80.898438 33.707031 -81.734375 39.21875 -81.734375 C 48.539062 -81.734375 56.335938 -79.378906 62.609375 -74.671875 C 68.890625 -69.960938 72.742188 -63.234375 74.171875 -54.484375 L 56.0625 -54.484375 C 54.914062 -58.859375 52.773438 -61.972656 49.640625 -63.828125 C 46.503906 -65.679688 42.984375 -66.609375 39.078125 -66.609375 C 35.273438 -66.609375 32.253906 -65.867188 30.015625 -64.390625 C 27.785156 -62.921875 26.671875 -60.953125 26.671875 -58.484375 C 26.671875 -56.296875 27.523438 -54.582031 29.234375 -53.34375 C 30.953125 -52.113281 33.210938 -51.164062 36.015625 -50.5 C 38.816406 -49.832031 41.835938 -49.164062 45.078125 -48.5 C 48.597656 -47.832031 52.1875 -47.046875 55.84375 -46.140625 C 59.5 -45.242188 62.875 -43.960938 65.96875 -42.296875 C 69.0625 -40.628906 71.554688 -38.34375 73.453125 -35.4375 C 75.359375 -32.539062 76.3125 -28.8125 76.3125 -24.25 C 76.3125 -16.445312 73.410156 -10.191406 67.609375 -5.484375 C 61.804688 -0.785156 53.722656 1.5625 43.359375 1.5625 Z M 43.359375 1.5625 "/></g></g></g></svg>