<svg xmlns="http://www.w3.org/2000/svg" data-name="Layer 1" viewBox="0 0 100 100" x="0px" y="0px"><title>Artboard 4</title><path d="M63.2,25.25h0A17.24,17.24,0,0,0,80.06,4.06a3,3,0,0,0-2.9-2.31h0A17.24,17.24,0,0,0,60.3,22.94,3,3,0,0,0,63.2,25.25Zm3.52-14.5a13.19,13.19,0,0,1,9.6-5A13.24,13.24,0,0,1,64,21.22,13.19,13.19,0,0,1,66.72,10.75ZM11.66,58.52C11.66,40,23.47,30,34.59,30a37.14,37.14,0,0,1,11.2,1.51,2,2,0,1,1-1.13,3.84A33.37,33.37,0,0,0,34.59,34c-9.17,0-18.93,8.6-18.93,24.53,0,15.27,11.36,35.73,23,35.73,4,0,5.86-1.72,7.52-3.24,1.32-1.21,2.57-2.35,4.55-2.35,1.76,0,3.53,1.23,5.4,2.54,2.15,1.5,4.36,3.05,6.81,3.05,4.59,0,21.43-13,21.43-35.73C84.34,36.38,71.1,34,65.41,34a21.12,21.12,0,0,0-6.52,1.32c-.9.28-1.78.56-2.71.8a2,2,0,0,1-2.5-1.82c-.75-12.63-9.12-17.12-16.06-17.12a2,2,0,0,1,0-4c8.81,0,18,5.71,19.81,18.4l.22-.07A25.06,25.06,0,0,1,65.41,30c3.83,0,22.93,1.38,22.93,28.53,0,24.31-17.88,39.73-25.43,39.73-3.71,0-6.69-2.09-9.09-3.77a12.31,12.31,0,0,0-3.12-1.82c-.33,0-.71.27-1.85,1.3a13.82,13.82,0,0,1-10.22,4.29C24.36,98.25,11.66,76,11.66,58.52Zm26.21-16a2,2,0,0,1,0,4c-4.39,0-9.07,4.22-9.07,12a2,2,0,0,1-4,0C24.8,48.11,31.54,42.49,37.87,42.49Z"/><text x="0" y="115" fill="#000000" font-size="5px" font-weight="bold" font-family="'Helvetica Neue', Helvetica, Arial-Unicode, Arial, Sans-serif">Created by Gregor Cresnar</text><text x="0" y="120" fill="#000000" font-size="5px" font-weight="bold" font-family="'Helvetica Neue', Helvetica, Arial-Unicode, Arial, Sans-serif">from the Noun Project</text></svg>