<?xml version="1.0" encoding="utf-8"?>
<svg xmlns="http://www.w3.org/2000/svg" viewBox="4.071 8.101 59.528 51.679" version="1.1" x="0px" y="0px" width = "10px" height = "10px">
  <title>heat, air, flow, temperature, hot</title>
  <desc>Created with Sketch.</desc>
  <path d="M 35.627 48.838 C 36.269 49.736 36.061 50.985 35.162 51.627 C 34.264 52.269 33.015 52.061 32.373 51.162 C 28.563 45.829 28.563 39.669 32.252 33.029 C 35.229 27.669 35.229 23.162 32.373 19.162 C 31.731 18.264 31.939 17.015 32.838 16.373 C 33.736 15.731 34.985 15.939 35.627 16.838 C 39.437 22.171 39.437 28.331 35.748 34.971 C 32.771 40.331 32.771 44.838 35.627 48.838 Z M 19.627 48.838 C 20.269 49.736 20.061 50.985 19.162 51.627 C 18.264 52.269 17.015 52.061 16.373 51.162 C 12.563 45.829 12.563 39.669 16.252 33.029 C 19.229 27.669 19.229 23.162 16.373 19.162 C 15.731 18.264 15.939 17.015 16.838 16.373 C 17.736 15.731 18.985 15.939 19.627 16.838 C 23.437 22.171 23.437 28.331 19.748 34.971 C 16.771 40.331 16.771 44.838 19.627 48.838 Z M 51.627 48.838 C 52.269 49.736 52.061 50.985 51.162 51.627 C 50.264 52.269 49.015 52.061 48.373 51.162 C 44.563 45.829 44.563 39.669 48.252 33.029 C 51.229 27.669 51.229 23.162 48.373 19.162 C 47.731 18.264 47.939 17.015 48.838 16.373 C 49.736 15.731 50.985 15.939 51.627 16.838 C 55.437 22.171 55.437 28.331 51.748 34.971 C 48.771 40.331 48.771 44.838 51.627 48.838 Z" fill="#f4f3ee" fill-rule="nonzero" stroke="none" stroke-width="1"/>
</svg>