<?xml version="1.0" encoding="utf-8"?>
<svg xmlns="http://www.w3.org/2000/svg" viewBox="4.071 8.101 59.528 51.679" version="1.1" x="0px" y="0px" width = "10px" height = "10px">
  <title>heat, air, flow, temperature, hot</title>
  <desc>Created with Sketch.</desc>
  <path d="M 27.462 48.779 C 28.104 49.677 27.896 50.926 26.997 51.568 C 26.099 52.21 24.85 52.002 24.208 51.103 C 20.398 45.77 20.398 39.61 24.087 32.97 C 27.064 27.61 27.064 23.103 24.208 19.103 C 23.566 18.205 23.774 16.956 24.673 16.314 C 25.571 15.672 26.82 15.88 27.462 16.779 C 31.272 22.112 31.272 28.272 27.583 34.912 C 24.606 40.272 24.606 44.779 27.462 48.779 Z M 43.462 48.779 C 44.104 49.677 43.896 50.926 42.997 51.568 C 42.099 52.21 40.85 52.002 40.208 51.103 C 36.398 45.77 36.398 39.61 40.087 32.97 C 43.064 27.61 43.064 23.103 40.208 19.103 C 39.566 18.205 39.774 16.956 40.673 16.314 C 41.571 15.672 42.82 15.88 43.462 16.779 C 47.272 22.112 47.272 28.272 43.583 34.912 C 40.606 40.272 40.606 44.779 43.462 48.779 Z" fill="#f4f3ee" fill-rule="nonzero" stroke="none" stroke-width="1"/>
</svg>