<svg xmlns="http://www.w3.org/2000/svg" data-name="Layer 1" viewBox="0 0 100 100" x="0px" y="0px" width = "10px" height = "10px">
<title>Artboard 11</title><path d="M34.85,32.75l-5.17-.26a14.8,14.8,0,0,0-11.19,4.3l-7.74,7.74a2.8,2.8,0,0,0,.91,4.57L23.25,53.9a69.39,69.39,0,0,0-2.32,8.18,2,2,0,0,0,.54,1.84l14.6,14.6a2,2,0,0,0,1.84.54,69.64,69.64,0,0,0,8.18-2.32L50.9,88.34a2.8,2.8,0,0,0,4.57.91l7.74-7.74a14.78,14.78,0,0,0,4.3-11.19l-.26-5.17C84.21,51.82,94.39,32,97.53,6.21a3.36,3.36,0,0,0-3.74-3.74C68,5.61,48.18,15.8,34.85,32.75ZM93.46,6.54C90.29,31.24,80.37,50.11,64,62.62a2,2,0,0,0-.78,1.69l.32,6.21a10.78,10.78,0,0,1-3.14,8.16l-6.47,6.47L49.05,73.44a2,2,0,0,0-2.56-1.1,66.89,66.89,0,0,1-8.37,2.58l-13-13a67,67,0,0,1,2.58-8.37,2,2,0,0,0-1.1-2.56l-11.7-4.86,6.47-6.47a10.79,10.79,0,0,1,8.16-3.14l6.21.32A2,2,0,0,0,37.38,36C49.89,19.63,68.76,9.71,93.46,6.54ZM68.17,41.75a9.92,9.92,0,1,0-7-2.9A9.89,9.89,0,0,0,68.17,41.75ZM64,27.64a5.92,5.92,0,1,1-1.74,4.19A5.89,5.89,0,0,1,64,27.64ZM5.19,97.56h0c16-.28,23.8-8.74,26.42-12.37A2.49,2.49,0,0,0,29,81.32a17.42,17.42,0,0,1-6.43.44,5,5,0,0,1-4.36-4.36A17.46,17.46,0,0,1,18.68,71a2.49,2.49,0,0,0-3.87-2.63C11.19,71,2.72,78.79,2.44,94.76a2.76,2.76,0,0,0,2.75,2.8Zm9-23.33a21.1,21.1,0,0,0,.12,3.65,9,9,0,0,0,7.85,7.85,21.19,21.19,0,0,0,3.65.12c-3.4,3.25-9.48,7.17-19.29,7.66C7,83.71,10.91,77.62,14.15,74.22Z"/><text x="0" y="115" fill="#000000" font-size="5px" font-weight="bold" font-family="'Helvetica Neue', Helvetica, Arial-Unicode, Arial, Sans-serif">Created by Gregor Cresnar</text><text x="0" y="120" fill="#000000" font-size="5px" font-weight="bold" font-family="'Helvetica Neue', Helvetica, Arial-Unicode, Arial, Sans-serif">from the Noun Project</text></svg>